<svg xmlns="http://www.w3.org/2000/svg" width="1024" height="1024" viewBox="-51.5 -51.5 1127.0 1127.0">
  <g fill="none" stroke="black" stroke-width="45" stroke-linecap="round" stroke-linejoin="round">
    <path d="M 302.455,379.767 C 287.967,369.024 278.024,363.551 268.279,359.686 C 253.858,356.428 239.371,355.527 143.006,355.023" data-line="nan"  stroke-width="45.0"/>
    <path d="M 500.59,552.532 C 477.889,577.415 471.196,586.944 466.603,596.498 C 463.855,606.023 462.772,614.434 461.712,653.557" data-line="nan"  stroke-width="45.0"/>
    <path d="M 927.908,727.712 C 954.242,724.048 968.881,719.329 978.632,714.394 C 986.163,709.279 994.039,702.458 1000.618,695.074 C 1005.906,687.566 1011.454,677.13 1017.114,660.113 Q 1019.134,642.969 1019.272,611.826" data-line="nan"  stroke-width="45.0"/>
    <path d="M 143.006,355.023 C 123.801,355.338 109.331,356.844 95.027,359.858 C 80.791,364.471 66.212,371.246 52.018,380.252 C 37.58,392.684 28.907,402.368 22.093,411.878 C 14.233,426.236 10.394,435.702 6.472,450.139 Q 4.333,469.232 4.0,527.024" data-line="nan"  stroke-width="45.0"/>
    <path d="M 4.019,637.857 C 5.322,656.917 8.978,671.237 15.984,685.974 C 27.175,700.711 41.325,712.464 56.102,719.977 Q 69.316,723.942 96.81,729.708" data-line="nan"  stroke-width="45.0"/>
    <path d="M 554.345,653.384 C 540.899,663.167 525.219,669.893 518.645,671.601 C 511.15,672.272 498.688,670.332 480.808,663.717 Q 461.712,653.557 408.696,612.671" data-line="nan"  stroke-width="45.0"/>
    <path d="M 1019.788,474.274 C 1019.047,458.692 1016.638,444.796 1013.0,432.991 C 1006.532,418.67 1000.041,408.143 990.089,395.592 C 979.852,385.507 969.998,377.818 957.376,370.079 C 946.9,365.022 933.415,360.129 919.104,356.597 Q 895.073,353.782 844.618,353.563" data-line="nan"  stroke-width="45.0"/>
    <path d="M 844.618,353.563 C 781.973,353.59 764.861,355.042 752.939,357.771 C 740.866,362.191 729.23,368.299 722.069,373.27" data-line="nan"  stroke-width="45.0"/>
    <circle cx="209.984383680325" cy="173.36931382012762" r="117.84068499931485" data-line="0.0"  stroke-width="45.0"/>
    <circle cx="811.5621112861047" cy="172.8396822537529" r="117.80967261761944" data-line="2.0"  stroke-width="45.0"/>
    <path d="M 96.848,967.079 L 96.775,525.481" data-line="5.0"  stroke-width="45.0"/>
    <path d="M 702.149,538.576 L 554.345,653.384" data-line="8.0"  stroke-width="45.0"/>
    <path d="M 323.946,967.079 L 322.807,543.591" data-line="9.0"  stroke-width="45.0"/>
    <path d="M 701.887,968.964 L 702.149,538.576" data-line="10.0"  stroke-width="45.0"/>
    <path d="M 500.59,552.532 L 302.455,379.767" data-line="11.0"  stroke-width="45.0"/>
    <path d="M 927.928,742.29 L 928.079,676.192" data-line="12.0"  stroke-width="45.0"/>
    <path d="M 927.928,742.29 L 928.074,967.079" data-line="13.0"  stroke-width="45.0"/>
    <path d="M 4.0,527.024 L 4.019,637.857" data-line="15.0"  stroke-width="45.0"/>
    <path d="M 408.696,612.671 L 322.807,543.591" data-line="18.0"  stroke-width="45.0"/>
    <path d="M 1019.272,611.826 L 1019.788,474.274" data-line="19.0"  stroke-width="45.0"/>
    <path d="M 722.069,373.27 L 503.402,554.987" data-line="20.0"  stroke-width="45.0"/>
  </g>
</svg>